<svg viewBox="0 0 1000 1000" xmlns="http://www.w3.org/2000/svg"><path style="display:inline;fill:#fbc948;fill-opacity:1;stroke-width:.999094" d="M225.244 188.398c-.62.018-1.361.286-2.215.9-1.138.821-2.476 2.26-3.414 3.927-.937 1.665-1.472 3.557-1.765 5.482a25.738 25.738 0 0 0-.227 5.541c.117 1.657.402 3.013.938 4.05.535 1.039 1.322 1.759 2.2 2.169.88.41 1.851.51 2.747.385.895-.126 1.715-.478 2.469-.963.753-.486 1.44-1.105 1.959-1.942.518-.837.87-1.892 1.113-3.13.243-1.24.376-2.662.392-4.11a36.65 36.65 0 0 0-.226-4.252c-.142-1.33-.327-2.52-.611-3.607-.285-1.088-.67-2.077-1.114-2.856-.443-.778-.944-1.347-1.664-1.531a2.11 2.11 0 0 0-.582-.063zM342.48 201.41c-1.23-.058-2.435.41-3.164 1.7-.728 1.288-.979 3.398-1.087 5.482-.11 2.084-.077 4.142.199 5.9s.795 3.214 1.724 4.201c.93.988 2.269 1.509 3.432 1.5 1.163-.008 2.153-.545 2.94-1.482.786-.938 1.372-2.277 1.706-3.717.335-1.44.419-2.979.327-4.586-.092-1.607-.361-3.282-.78-4.588-.418-1.305-.986-2.242-1.898-3.004-.912-.761-2.168-1.347-3.399-1.406zm-67.63 19.744c-3.965.06-6.819 2.465-8.313 6.948-1.707 5.122-1.64 12.957-2.008 20.925-.368 7.969-1.171 16.07-3.549 22.633-2.377 6.562-6.328 11.584-11.45 15.4-5.123 3.817-11.418 6.429-16.942 7.768-5.524 1.34-10.279 1.407-14.832 2.244-4.554.837-8.906 2.443-12.053 5.557-3.147 3.114-5.087 7.735-7.967 13.025-2.879 5.29-6.697 11.25-9.978 16.272-3.281 5.022-6.025 9.106-8.637 11.851-2.611 2.746-5.09 4.15-5.057 5.088.034.938 2.579 1.406 8.94-.234 6.361-1.64 16.54-5.389 25.947-9.172 9.408-3.783 18.045-7.6 25.78-11.016a17720.5 17720.5 0 0 1 21.261-9.375c6.696-2.946 13.257-5.825 18.815-8.101 5.557-2.277 10.111-3.952 14.062-4.856 3.95-.904 7.3-1.037 10.346-.77 3.047.269 5.793.938 8.17 1.675 2.377.736 4.386 1.54 6.595 3.013 2.21 1.473 4.62 3.616 7.399 6.127 2.779 2.511 5.925 5.39 9.039 8.27s6.195 5.759 9.074 8.437c2.88 2.679 5.558 5.156 8.237 7.633 2.678 2.478 5.356 4.956 9.292 9.205 3.937 4.25 9.13 10.269 12.868 12.145 3.736 1.876 6.015-.393 5.761-5.914-.253-5.522-3.04-14.296-5.203-24.71-2.163-10.413-3.702-22.465-8.322-28.96-4.62-6.496-12.321-7.434-19.754-8.84-7.433-1.406-14.597-3.28-19.853-8.838-5.257-5.558-8.606-14.798-13.026-24.574-4.42-9.777-9.91-20.09-15.803-27.155-5.892-7.064-12.186-10.88-17.074-11.584a11.19 11.19 0 0 0-1.765-.117zm416.437.559c-5.36-.225-9.429 5.773-10.496 15.127-1.138 9.977 1.138 23.772.066 34.553-1.071 10.78-5.49 18.547-7.113 24.517-1.623 5.97-.45 10.144.137 12.23l.182.645c-2.141 1.067-6.477 3.43-12.983 4.819-8.429 1.8-20.499 1.966-26.115 4.46-5.617 2.495-4.78 7.316-4.72 11.844.058 4.528-.662 8.764-1.382 12.28-.72 3.515-1.44 6.31-1.816 8.017-.377 1.708-.41 2.327-3.516 6.389s-9.284 11.567-8.681 11.851c.602.285 7.986-6.652 12.431-10.672 4.445-4.02 5.95-5.124 7.633-6.546 1.682-1.423 3.541-3.164 6.32-5.834 2.78-2.67 6.478-6.27 9.366-9.149 2.887-2.88 4.964-5.038 6.822-6.922 1.858-1.883 3.498-3.49 4.937-4.947 1.44-1.456 2.68-2.762 3.592-3.691.913-.93 1.498-1.482 2.326-2.461.829-.98 1.901-2.385 3.743-4.67.87-1.081 1.913-2.359 2.656-3.39a88.757 88.757 0 0 0 2.81-.919c1.196-.414 2.676-.957 4.262-1.496 1.586-.539 3.277-1.072 5.053-1.475a43.094 43.094 0 0 1 10.103-1.017c1.652.024 3.474.118 5.32.373 1.847.254 3.718.669 5.452 1.178 1.734.509 3.332 1.112 5.498 1.982 2.166.87 4.901 2.007 7.914 3.309a669.028 669.028 0 0 1 9.728 4.316c3.425 1.547 6.982 3.171 11.758 5.34a1681.268 1681.268 0 0 0 17.264 7.744c6.495 2.863 13.494 5.875 22.5 9.775 9.006 3.901 20.021 8.69 28.76 12.54 8.738 3.85 15.199 6.762 20.74 9.273 5.541 2.511 10.16 4.62 15.25 7.064a592.224 592.224 0 0 1 14.916 7.434c4.269 2.21 7.248 3.85 10.412 5.658 3.164 1.808 6.513 3.784 8.69 4.922 2.176 1.138 3.18 1.44 3.732.234.552-1.205.653-3.917-5.39-9.81-6.044-5.893-18.23-14.966-26.75-25.094-8.522-10.128-13.376-21.31-19.553-26.969-6.178-5.658-13.679-5.791-22.786-5.925-9.106-.134-19.818-.268-27.117-4.553-7.299-4.286-11.183-12.723-13.326-21.83-2.143-9.107-2.545-18.883-2.746-26.65-.201-7.768-.201-13.527-4.688-14.598-4.486-1.072-13.458 2.546-22.498 1.474-9.04-1.071-18.147-6.831-26.316-13.93-8.17-7.097-15.4-15.533-21.293-16.671a7.343 7.343 0 0 0-1.088-.13zm-60.05 17.05c-.289.01-.593.081-.91.23-1.019.473-2.179 1.726-2.948 3.075-.77 1.35-1.148 2.795-1.408 4.334a28.893 28.893 0 0 0-.403 4.758c0 1.586.143 3.125.368 4.356.224 1.23.533 2.154 1.136 2.923.604.77 1.502 1.387 2.461 1.446.959.059 1.978-.438 2.795-1.16s1.43-1.67 1.928-2.9c.497-1.232.877-2.747 1.031-4.475.154-1.729.082-3.67-.096-5.256-.177-1.586-.46-2.817-.828-3.918-.367-1.101-.817-2.072-1.48-2.711-.456-.44-1.013-.721-1.647-.701zm66.415 90.885c-3.397-.034-6.939.65-9.29 1.791-2.437 1.182-37.019 35.363-96.317 95.204-83.828 84.592-92.81 93.357-95.67 93.357-2.858 0-10.43-7.362-79.967-77.75-42.245-42.762-83.23-84.392-91.076-92.508-7.846-8.116-15.675-15.627-17.396-16.693-1.722-1.067-4.914-2.324-7.094-2.795-2.18-.471-5.536-.562-7.457-.203-1.922.36-7.087 2.33-11.479 4.38-4.392 2.05-18.414 8.41-31.162 14.133-12.747 5.723-34.095 15.09-47.437 20.817-13.344 5.725-33.683 14.762-45.2 20.084-11.516 5.32-23.857 11.078-27.425 12.79-3.708 1.782-8.693 5.323-11.63 8.265-2.826 2.832-6.311 7.464-7.743 10.296-1.433 2.832-3.276 7.728-4.094 10.877-.9 3.46-1.458 9.903-1.412 16.268l.076 10.539 1.775-6c.978-3.3 3.418-9.257 5.422-13.238 2.17-4.31 6.28-10.038 10.156-14.155 5.668-6.02 7.772-7.468 16.213-11.17 5.337-2.338 12.847-5.704 16.69-7.476 3.843-1.773 19.34-8.628 34.437-15.234a12027.592 12027.592 0 0 0 54.4-23.997 37083.368 37083.368 0 0 1 38.52-17.109c6.362-2.817 12.58-5.121 13.822-5.121 1.241 0 3.711.691 5.487 1.535 1.775.844 45.57 44.27 97.324 96.5C479.718 523.36 494.651 538 496.985 538c2.334 0 17.185-14.57 96.413-94.578 56.028-56.578 95.169-95.35 97.418-96.5 2.07-1.057 4.951-1.922 6.405-1.922 1.453 0 12.363 4.231 24.246 9.402l36.576 15.922c8.235 3.585 35.144 15.558 59.797 26.604 30.044 13.462 46.267 21.27 49.205 23.681 2.41 1.98 6.177 6.031 8.37 9.004 2.192 2.974 5.764 8.978 7.939 13.344s3.955 8.411 3.955 8.99c0 .58.402 1.053.896 1.053.498 0 .704-4.284.463-9.639-.27-5.98-1.203-11.926-2.46-15.666-1.116-3.316-3.334-7.93-4.929-10.254-1.596-2.323-5.04-6.11-7.652-8.414-2.613-2.304-9.475-6.457-15.25-9.23-5.774-2.773-19.257-9.09-29.963-14.04-10.705-4.947-37.207-16.785-58.892-26.304-21.686-9.518-45.493-20.105-52.905-23.527-11.184-5.164-14.408-6.233-18.965-6.278zM465.551 504.996a.5.5 0 1 1-.004 1 .5.5 0 0 1 .004-1z"/><path style="display:inline;fill:#faa21e;fill-opacity:1" d="M689.53 139.69c-.382.02-.698.14-.938.359-.77.703-.77 2.445-.201 4.387.569 1.941 1.708 4.084 2.445 6.394.737 2.31 1.07 4.787 1.004 7.834-.067 3.047-.536 6.662-1.608 10.211-1.071 3.549-2.745 7.03-4.988 10.68-2.243 3.65-5.055 7.466-7.8 11.015-2.746 3.55-5.425 6.831-7.97 10.48-2.544 3.65-4.954 7.667-6.427 11.35-1.473 3.683-2.01 7.03-2.01 10.043 0 3.014.536 5.693 2.043 9.342 1.507 3.65 3.983 8.27 6.227 13.426 2.243 5.156 4.252 10.848 5.19 16.205.937 5.357.804 10.378-.134 14.998-.937 4.62-2.679 8.839-5.592 12.756-2.912 3.917-6.997 7.533-11.015 9.475-4.018 1.941-7.968 2.21-11.617 1.105-3.65-1.105-6.997-3.583-9.776-6.094-2.779-2.51-4.99-5.055-7.4-5.19-2.41-.133-5.023 2.144-7.5 5.659-2.478 3.515-4.82 8.27-6.428 14.129-1.607 5.859-2.478 12.824-3.515 18.549-1.038 5.725-2.244 10.212-4.956 15.736-2.711 5.524-6.929 12.086-9.841 20.524-2.913 8.437-4.521 18.748-5.325 23.904-.803 5.156-.803 5.155-.793 5.373.011.218.033.655.602.32.57-.335 1.687-1.441 3.049-2.73 1.362-1.29 2.968-2.762 4.877-4.637a227.475 227.475 0 0 0 6.16-6.328c2.042-2.176 3.917-4.251 6.428-6.93 2.51-2.678 5.658-5.96 8.203-8.705 2.544-2.745 4.486-4.955 5.86-7.365 1.372-2.41 2.175-5.024 2.878-7.803.703-2.779 1.306-5.724 1.908-9.307.603-3.582 1.206-7.801 1.407-11.25.2-3.448 0-6.126.468-7.097.469-.971 1.607-.233 2.678.336 1.071.569 2.077.97 3.617 1.37 1.54.403 3.616.806 5.86 1.04 2.243.234 4.653.302 7.13-.033 2.478-.335 5.021-1.073 7.23-2.01 2.21-.938 4.086-2.076 5.894-3.248a127.637 127.637 0 0 0 5.357-3.682c1.808-1.305 3.683-2.712 5.658-3.95 1.976-1.24 4.052-2.311 6.094-3.75a32.31 32.31 0 0 0 5.86-5.358c1.807-2.11 3.413-4.519 4.585-6.528 1.172-2.009 1.91-3.616 2.914-6.027 1.005-2.41 2.277-5.625 3.08-9.14.804-3.516 1.138-7.331 1.004-11.048-.134-3.716-.736-7.332-1.472-10.58-.737-3.247-1.608-6.128-2.11-8.84-.502-2.711-.636-5.256-.502-7.968.134-2.712.536-5.59.971-6.762.435-1.172.903-.636 1.807.736.904 1.373 2.244 3.582 3.65 5.758 1.406 2.176 2.88 4.32 4.687 6.463 1.808 2.143 3.951 4.284 6.362 6.527 2.41 2.244 5.088 4.587 7.465 6.864 2.377 2.276 4.453 4.487 6.261 6.931 1.808 2.444 3.349 5.122 4.42 7.868 1.072 2.745 1.674 5.557 2.678 6.193 1.004.636 2.41-.903 3.783-2.275 1.373-1.373 2.712-2.58 4.252-3.885 1.54-1.306 3.281-2.71 5.223-4.15 1.942-1.44 4.085-2.913 6.562-4.755 2.478-1.841 5.29-4.05 6.362-3.984 1.071.067.402 2.41-.268 4.955s-1.34 5.29-1.875 8.135a70.61 70.61 0 0 0-1.139 9.342c-.2 3.549-.199 7.7.303 11.35.502 3.649 1.506 6.796 2.979 10.378 1.473 3.583 3.415 7.6 5.86 11.383 2.443 3.783 5.39 7.332 8.437 10.111a39.454 39.454 0 0 0 9.105 6.229c2.913 1.44 5.592 2.31 8.639 2.678 3.046.368 6.462.235 9.81-.301 3.348-.536 6.629-1.473 9.742-2.611 3.114-1.139 6.06-2.478 8.672-3.952 2.612-1.473 4.889-3.08 6.094-3.013 1.205.067 1.34 1.808 1.406 4.386.067 2.578.067 5.992.301 9.34.234 3.348.703 6.63 1.172 9.979.469 3.348.937 6.762 2.41 8.636 1.473 1.875 3.951 2.211 6.53 3.149 2.577.937 5.256 2.477 8.47 4.05 3.214 1.574 6.964 3.181 10.613 4.956 3.65 1.774 7.197 3.715 10.545 5.523 3.348 1.808 6.497 3.483 10.48 6.262 3.985 2.779 8.806 6.661 11.284 7.7 2.478 1.037 2.61-.77 2.744-3.114.134-2.344.268-5.222.235-8.135a75.358 75.358 0 0 0-.635-8.94c-.402-3.08-1.005-6.294-1.809-9.107-.803-2.812-1.808-5.222-2.846-7.197-1.037-1.975-2.11-3.517-3.716-5.291-1.607-1.775-3.75-3.782-5.625-3.648-1.875.133-3.483 2.41-4.922 3.85-1.44 1.439-2.712 2.04-4.487 2.208-1.774.168-4.05-.1-6.26-.97-2.209-.871-4.353-2.344-5.993-4.085-1.641-1.74-2.778-3.75-3.883-7.902S850 328.51 849.23 323.354c-.77-5.157-1.238-9.174-1.974-13.024-.737-3.85-1.742-7.532-2.98-10.713-1.24-3.18-2.712-5.86-4.587-8.572a62.674 62.674 0 0 0-6.427-7.8c-2.277-2.345-4.555-4.286-7.166-5.725-2.612-1.44-5.558-2.377-6.83-1.004-1.273 1.372-.87 5.054-.87 8.603 0 3.55-.402 6.965-.804 10.045s-.804 5.826-1.608 8.27c-.803 2.444-2.007 4.585-3.681 6.293-1.674 1.707-3.817 2.98-5.86 3.716-2.042.737-3.983.938-6.427.235-2.444-.703-5.391-2.31-7.735-4.186-2.343-1.875-4.085-4.017-5.625-6.394s-2.879-4.988-3.783-8.135c-.904-3.147-1.372-6.831-1.473-10.48-.1-3.65.167-7.265.836-10.747.67-3.482 1.74-6.83 2.88-10.814 1.138-3.984 2.344-8.604 2.88-12.086.536-3.482.401-5.827-.168-9.275-.569-3.449-1.574-8.002-2.78-11.852-1.204-3.85-2.61-6.997-4.083-9.91a92.118 92.118 0 0 0-4.553-8.002c-1.54-2.41-3.08-4.552-4.889-6.729-1.808-2.176-3.883-4.386-5.49-5.892-1.607-1.507-2.746-2.31-3.482-1.875-.737.435-1.072 2.109-1.172 4.05-.1 1.942.033 4.152.234 6.16.201 2.01.469 3.818.502 6.296.034 2.477-.167 5.624-.67 8.504-.502 2.879-1.306 5.489-2.343 7.699-1.038 2.21-2.31 4.019-3.817 5.525-1.506 1.507-3.248 2.713-5.156 3.717-1.908 1.004-3.984 1.807-6.428 2.176-2.444.368-5.257.301-7.5-.033-2.243-.335-3.916-.939-5.992-2.043-2.076-1.105-4.553-2.712-6.83-4.553-2.277-1.842-4.354-3.918-6.43-6.764-2.076-2.846-4.151-6.461-5.457-10.178-1.306-3.716-1.84-7.533-1.941-10.982a41.11 41.11 0 0 1 .803-9.373c.569-2.846 1.374-5.458 2.144-8.94.77-3.481 1.506-7.834 1.674-11.583.167-3.75-.235-6.898-1.172-10.045-.937-3.148-2.41-6.294-4.018-9.006-1.607-2.712-3.348-4.989-4.921-6.83-1.574-1.842-2.98-3.25-4.89-5.024-1.908-1.774-4.319-3.915-6.294-5.154-1.358-.852-2.51-1.277-3.348-1.23zm-388.09 20.533c-.873.01-2.299 1.028-3.737 2.111a108.298 108.298 0 0 0-5.824 4.71 138.367 138.367 0 0 0-5.965 5.518 171.756 171.756 0 0 0-6.32 6.51 256.837 256.837 0 0 0-7.127 8.073c-2.344 2.77-4.522 5.468-6.606 8.38-2.083 2.912-4.07 6.038-5.562 8.5a106.63 106.63 0 0 0-3.647 6.487c-1.16 2.225-2.485 4.876-3.384 7.48-.9 2.604-1.375 5.16-1.635 7.457-.26 2.297-.307 4.333-.14 6.44.165 2.107.543 4.285.898 6.629.355 2.343.687 4.853.923 7.6.237 2.745.38 5.728.403 8.071.023 2.344-.07 4.05-.283 5.897-.213 1.847-.545 3.834-1.137 5.775-.592 1.942-1.445 3.836-2.676 5.848a33.138 33.138 0 0 1-4.758 6.06c-1.917 1.918-4.144 3.624-6.558 4.76-2.415 1.137-5.02 1.705-7.198 1.752-2.178.048-3.93-.427-5.658-1.209a21.122 21.122 0 0 1-4.828-3.052c-1.397-1.184-2.486-2.463-3.527-3.883-1.042-1.42-2.036-2.983-2.723-4.664-.686-1.681-1.067-3.481-1.209-5.99-.142-2.51-.046-5.728.238-8.333.284-2.604.758-4.594 1.207-6.914.45-2.32.876-4.97.38-5.705-.498-.734-1.919.45-3.102 1.54-1.184 1.088-2.13 2.082-3.362 3.36-1.23 1.28-2.747 2.841-4.404 4.546-1.657 1.704-3.455 3.552-5.16 5.351-1.705 1.8-3.316 3.55-4.57 5.207-1.255 1.657-2.154 3.22-2.96 4.854-.804 1.633-1.514 3.338-2.011 5.681-.497 2.344-.782 5.328-.947 8.31-.166 2.984-.213 5.967-.38 9.352-.165 3.386-.45 7.173-.71 10.393-.26 3.22-.496 5.871-.875 8.191-.379 2.32-.9 4.308-1.705 6.155a19.066 19.066 0 0 1-3.196 5.02c-1.302 1.467-2.816 2.699-4.332 3.835-1.515 1.137-3.03 2.178-4.664 2.96-1.633.78-3.386 1.3-4.806 1.466-1.42.166-2.51-.023-3.717-.615-1.207-.592-2.533-1.585-3.764-2.864-1.23-1.278-2.367-2.84-3.29-4.498-.924-1.657-1.635-3.409-2.085-5.824-.45-2.415-.638-5.492-.709-8.806-.07-3.315-.023-6.866.166-10.393.19-3.528.52-7.033-.332-8.027-.852-.995-2.888.521-4.687 2.084-1.8 1.562-3.363 3.172-4.973 5.043-1.61 1.87-3.266 4-4.994 6.486a95.37 95.37 0 0 0-5.209 8.38c-1.68 3.055-3.243 6.322-4.379 9.968-1.136 3.645-1.848 7.67-2.226 11.625-.38 3.953-.427 7.835-.758 11.363-.332 3.527-.947 6.7-1.633 9.754-.687 3.054-1.444 5.988-2.912 9.326s-3.646 7.08-5.09 9.494c-1.444 2.415-2.155 3.503-3.48 5.326-1.326 1.823-3.267 4.381-3.598 5.328-.332.947.946.283 2.224-.427 1.279-.71 2.558-1.467 4.026-2.272a172.172 172.172 0 0 1 4.758-2.486c1.633-.829 3.243-1.634 4.853-2.487 1.61-.852 3.22-1.75 5.043-2.65 1.823-.9 3.859-1.8 6.486-2.889 2.628-1.089 5.849-2.366 8.69-3.597 2.84-1.231 5.303-2.417 8.025-3.719a611.484 611.484 0 0 1 8.594-4.047c2.888-1.326 5.682-2.557 8.168-3.693 2.486-1.137 4.663-2.178 7.291-3.362 2.628-1.183 5.706-2.51 8.736-4.238 3.03-1.728 6.012-3.86 8.356-5.99 2.344-2.13 4.049-4.26 5.588-6.367 1.539-2.107 2.912-4.192 4.498-6.938 1.586-2.746 3.386-6.154 4.64-8.853 1.255-2.7 1.966-4.689 2.51-7.104.545-2.415.923-5.254 1.846-6.201.923-.947 2.39-.001 3.976.898 1.587.9 3.291 1.752 5.446 2.534 2.154.78 4.76 1.492 7.884 1.705 3.126.213 6.77-.071 10.32-1.16 3.552-1.09 7.01-2.983 9.993-5.137 2.983-2.154 5.493-4.57 7.978-7.41 2.486-2.841 4.947-6.108 6.936-9.375 1.989-3.267 3.504-6.535 4.9-10.133 1.397-3.599 2.676-7.528 3.457-10.984.782-3.457 1.065-6.44 1.23-9.282a88.78 88.78 0 0 0 .12-8.308c-.095-2.77-.331-5.611-1.16-8.784-.829-3.172-2.25-6.677-2.32-8.476-.071-1.8 1.208-1.893 2.486-1.703 1.278.19 2.556.663 3.764 1.373 1.207.71 2.342 1.656 3.81 3.03a64.562 64.562 0 0 1 5.02 5.232 64.935 64.935 0 0 1 4.972 6.722c1.516 2.344 2.841 4.713 3.93 7.08 1.09 2.368 1.94 4.735 2.793 7.244.852 2.51 1.704 5.162 2.58 7.79.876 2.627 1.776 5.23 2.7 7.93.923 2.698 1.87 5.491 3.171 8.427a68.928 68.928 0 0 0 4.594 8.594c1.633 2.58 3.243 4.664 5.326 6.748 2.083 2.083 4.64 4.167 7.008 5.634a25.156 25.156 0 0 0 6.558 2.887c2.013.568 3.86.853 5.682.877 1.823.024 3.622-.212 5.729-.851 2.107-.64 4.52-1.681 6.912-3.102 2.39-1.42 4.758-3.22 5.847-3.314 1.09-.095.9 1.514.711 3.242-.189 1.728-.378 3.576-.615 5.896s-.52 5.114-.568 7.813c-.048 2.699.141 5.302.472 7.906a74.15 74.15 0 0 0 1.47 7.979c.662 2.77 1.514 5.704 2.39 8.332.876 2.627 1.775 4.948 2.556 7.126.782 2.179 1.445 4.215 2.344 5.825.9 1.61 2.037 2.793 3.86 4.521 1.822 1.728 4.331 4 6.912 6.533 2.58 2.534 5.232 5.328 7.742 7.932s4.877 5.018 6.96 7.291c2.084 2.273 3.883 4.404 5.54 6.606 1.657 2.201 3.173 4.475 3.86 4.593.686.119.544-1.919.378-4.168-.166-2.249-.355-4.71-.592-6.912-.236-2.202-.522-4.143-.853-6.416-.332-2.273-.71-4.877-1.326-7.742a102.587 102.587 0 0 0-2.248-8.498c-.782-2.51-1.492-4.404-2.557-6.416-1.065-2.012-2.486-4.142-4.12-6.154-1.633-2.013-3.48-3.908-5.185-5.897-1.704-1.988-3.266-4.07-4.402-5.988-1.136-1.918-1.847-3.67-2.344-5.871-.497-2.202-.782-4.855-.924-7.672-.142-2.817-.141-5.799-.047-8.924.095-3.125.283-6.393.543-9.305.26-2.912.593-5.467.735-8.308.142-2.841.095-5.966-.237-9.186-.331-3.22-.947-6.534-1.681-9.517a73.455 73.455 0 0 0-2.508-8.121 73.358 73.358 0 0 0-3.008-7.008c-1.089-2.202-2.272-4.285-3.953-6.51-1.68-2.225-3.86-4.593-4.973-5.066-1.112-.474-1.159.947-1.253 2.699-.095 1.752-.238 3.836-.356 5.611-.118 1.776-.213 3.242-.355 4.994-.142 1.752-.332 3.789-.782 5.612s-1.159 3.432-2.058 4.947a20.98 20.98 0 0 1-3.385 4.308c-1.397 1.374-3.102 2.7-4.664 3.813-1.563 1.113-2.984 2.012-4.57 2.533-1.587.521-3.338.663-4.948.615-1.61-.047-3.078-.285-4.427-.877-1.35-.591-2.58-1.537-3.717-2.65s-2.178-2.39-2.936-4.143c-.757-1.751-1.231-3.978-1.539-6.488-.308-2.51-.448-5.303-.709-8.025a105.49 105.49 0 0 0-1.113-8.096c-.474-2.722-1.041-5.517-1.61-7.742-.568-2.225-1.136-3.883-1.894-5.658-.758-1.776-1.705-3.668-2.842-5.42-1.136-1.752-2.462-3.363-3.93-5.399-1.467-2.036-3.077-4.497-4.687-6.912-1.61-2.415-3.219-4.782-4.568-7.197-1.35-2.415-2.44-4.877-3.434-7.6-.994-2.722-1.892-5.705-2.318-8.404-.426-2.699-.38-5.114-.262-7.955.118-2.84.308-6.107.522-9.043.213-2.936.448-5.54.898-8.215s1.114-5.422 1.8-8.476c.687-3.054 1.397-6.416.805-7.434-.148-.254-.377-.363-.668-.36z"/><path style="display:inline;fill:#fa750f;fill-opacity:1" d="M534.161-20.07a9.175 9.175 0 0 0-3.49.563L394.716 30.656a10.931 10.931 0 0 0-7.147 10.195l-.786 143.423a11.041 11.041 0 0 0 7.01 10.339l143.22 56.18a11.191 11.191 0 0 0 11.113-1.707L684.984 138.7a3.988 3.988 0 0 1 5.009 0l136.873 110.397a11.191 11.191 0 0 0 11.113 1.708l143.22-56.18a11.041 11.041 0 0 0 7.01-10.34l-.786-143.422a10.93 10.93 0 0 0-7.147-10.195L844.322-19.496a9.175 9.175 0 0 0-8.95 1.478L690.004 99.702a3.972 3.972 0 0 1-5 0L539.62-18.029a9.175 9.175 0 0 0-5.46-2.04zm-8.716 34.861a7.036 7.036 0 0 1 4.177 1.57l116.012 94.247a5.48 5.48 0 0 1 0 8.51l-111.103 90.18a8.512 8.512 0 0 1-8.488 1.31l-87.127-34.373a8.515 8.515 0 0 1-5.39-7.92V53.582a8.283 8.283 0 0 1 5.442-7.78l83.804-30.589a7.036 7.036 0 0 1 2.673-.42zm323.032.331a7.036 7.036 0 0 1 2.673.421l83.805 30.588a8.283 8.283 0 0 1 5.444 7.782v114.734a8.515 8.515 0 0 1-5.39 7.92l-87.128 34.373a8.512 8.512 0 0 1-8.489-1.309L728.29 119.45a5.48 5.48 0 0 1-.001-8.509l116.013-94.248a7.036 7.036 0 0 1 4.175-1.57z" transform="matrix(1.30712 0 0 1.59908 -401.864 371.75)"/></svg>